#!OML:ASF E:\emotionWalksFemale\Project 1\Capture day 1\Session 1\Female1.ASF
:FULLY-SPECIFIED
:DEGREES
2071
root 8.42092 15.1909 39.2612 1.92416 -190.325 357.753
lowerback 5.85628 -1.21947 -0.440949
upperback -5.04617 -1.53959 0.229048
thorax -8.58721 -0.663951 0.68417
lowerneck -0.970117 4.24811 1.25585
upperneck -3.08687 5.67458 -2.22865
head -0.680641 2.86614 -0.90019
rclavicle 5.34234e-015 3.18055e-015
rhumerus -38.8942 4.58691 -84.996
rradius 35.5287
rwrist 19.5044
rhand -5.26419 -48.1409
rfingers 7.12502
rthumb 20.5396 282.926
lclavicle 5.34234e-015 3.18055e-015
lhumerus -49.1005 -43.3968 111.061
lradius 79.4843
lwrist -12.7332
lhand -5.46915 -46.0628
lfingers 7.12502
lthumb 20.3426 -17.1082
rfemur -14.3452 11.6253 19.4107
rtibia 32.8457
rfoot -24.8897 -21.1244
rtoes 10.7156
lfemur -3.86326 -18.0697 -27.6637
ltibia 24.5029
lfoot -27.3857 27.9978
ltoes -38.8726
2072
root 8.40025 15.1874 39.2715 1.81015 -190.194 357.703
lowerback 5.93567 -1.19391 -0.421953
upperback -4.94619 -1.51319 0.197535
thorax -8.52707 -0.656969 0.637656
lowerneck -1.16789 4.19704 0.947228
upperneck -3.08529 5.61445 -1.95708
head -0.664063 2.83729 -0.761074
rclavicle -5.91384e-015 -7.15625e-015
rhumerus -39.335 3.58065 -84.289
rradius 34.7411
rwrist 19.8192
rhand -5.44083 -48.3079
rfingers 7.12502
rthumb 20.3698 282.74
lclavicle -5.91384e-015 -7.15625e-015
lhumerus -49.3835 -41.6342 110.583
lradius 78.3738
lwrist -12.4834
lhand -4.93277 -45.5562
lfingers 7.12502
lthumb 20.858 -16.6575
rfemur -14.3208 11.4302 19.2819
rtibia 32.9201
rfoot -24.9023 -20.8593
rtoes 10.818
lfemur -3.77109 -18.1265 -27.8161
ltibia 24.4002
lfoot -27.1496 28.115
ltoes -39.0792
2073
root 8.37783 15.1871 39.2845 1.74615 -190.001 357.61
lowerback 6.00328 -1.22395 -0.538971
upperback -4.86539 -1.57227 0.182044
thorax -8.47568 -0.68231 0.695448
lowerneck -1.49931 4.20988 0.806585
upperneck -2.88433 5.63592 -1.78034
head -0.556205 2.84608 -0.671837
rclavicle 3.54085e-014 9.93923e-015
rhumerus -39.8691 3.09081 -83.7873
rradius 34.1811
rwrist 19.6841
rhand -6.29922 -48.9078
rfingers 7.12502
rthumb 19.5447 282.055
lclavicle 3.54085e-014 9.93923e-015
lhumerus -49.4575 -39.723 109.835
lradius 77.0547
lwrist -12.2221
lhand -4.87897 -45.731
lfingers 7.12502
lthumb 20.9097 -16.8379
rfemur -14.3845 11.14 19.0843
rtibia 33.0573
rfoot -24.751 -20.9671
rtoes 10.8005
lfemur -3.72518 -18.4039 -28.0066
ltibia 24.2816
lfoot -26.9083 28.1182
ltoes -38.4314
2074
root 8.35841 15.1884 39.2963 1.694 -189.856 357.443
lowerback 6.08892 -1.21404 -0.803153
upperback -4.86125 -1.58652 0.188831
thorax -8.51397 -0.673356 0.854635
lowerneck -1.28059 4.09019 0.804279
upperneck -3.14795 5.47627 -1.93448
head -0.670996 2.77114 -0.729114
rclavicle 3.52843e-015 1.59028e-015
rhumerus -40.5344 2.58868 -83.1699
rradius 33.6137
rwrist 19.6981
rhand -6.26516 -49.7068
rfingers 7.12502
rthumb 19.5774 281.259
lclavicle 3.52843e-015 1.59028e-015
lhumerus -49.5995 -37.6551 109.245
lradius 75.4294
lwrist -12.4726
lhand -6.0134 -46.1017
lfingers 7.12502
lthumb 19.8195 -17.0922
rfemur -14.4442 11.0745 18.8238
rtibia 33.1956
rfoot -24.7628 -21.1545
rtoes 11.2372
lfemur -3.73466 -18.204 -28.1743
ltibia 24.1573
lfoot -26.6813 27.6998
ltoes -37.7727
2075
root 8.34277 15.1895 39.3059 1.68958 -189.81 357.314
lowerback 6.12676 -1.17145 -1.03765
upperback -4.88844 -1.55156 0.193818
thorax -8.56017 -0.640841 0.987927
lowerneck -1.19516 3.99618 0.947936
upperneck -3.17913 5.34712 -2.06423
head -0.689507 2.70652 -0.795074
rclavicle 2.88735e-014 -3.97569e-016
rhumerus -41.2477 2.0279 -82.5336
rradius 32.9885
rwrist 19.9421
rhand -6.17515 -50.0795
rfingers 7.12502
rthumb 19.664 280.895
lclavicle 2.88735e-014 -3.97569e-016
lhumerus -49.7606 -35.4381 108.495
lradius 73.8236
lwrist -12.8595
lhand -7.04029 -46.5296
lfingers 7.12502
lthumb 18.8321 -17.4212
rfemur -14.5634 11.1678 18.6121
rtibia 33.337
rfoot -24.8752 -21.182
rtoes 11.5192
lfemur -3.77198 -17.8572 -28.2751
ltibia 24.0288
lfoot -26.854 27.2659
ltoes -37.1983
2076
root 8.32707 15.1893 39.3178 1.65738 -189.744 357.401
lowerback 6.20422 -1.1245 -1.06472
upperback -4.87312 -1.48814 0.265838
thorax -8.58799 -0.606225 1.07242
lowerneck -1.18708 3.90701 1.00015
upperneck -3.18784 5.22606 -2.20576
head -0.690504 2.64724 -0.847451
rclavicle -2.9768e-014 2.38542e-015
rhumerus -41.8788 1.34754 -81.7942
rradius 32.2886
rwrist 20.5739
rhand -6.37832 -50.2076
rfingers 7.12502
rthumb 19.4686 280.747
lclavicle -2.9768e-014 2.38542e-015
lhumerus -49.6376 -33.1238 107.427
lradius 72.0903
lwrist -13.2832
lhand -7.30404 -47.2549
lfingers 7.12502
lthumb 18.5784 -18.1221
rfemur -14.6338 11.1584 18.6534
rtibia 33.489
rfoot -24.9471 -21.1956
rtoes 11.1675
lfemur -3.67833 -18.1153 -28.2589
ltibia 23.8807
lfoot -27.4695 26.9801
ltoes -35.3083
2077
root 8.30775 15.1876 39.3298 1.64069 -189.56 357.446
lowerback 6.25423 -1.07363 -0.998299
upperback -4.87679 -1.41019 0.30935
thorax -8.62378 -0.570282 1.07186
lowerneck -1.0923 3.81621 0.686522
upperneck -3.2271 5.10891 -2.09955
head -0.730328 2.59208 -0.766457
rclavicle -6.5102e-015 -1.98785e-015
rhumerus -42.5083 0.555205 -80.9577
rradius 31.6174
rwrist 21.3004
rhand -7.20248 -49.8964
rfingers 7.12502
rthumb 18.6761 280.98
lclavicle -6.5102e-015 -1.98785e-015
lhumerus -49.8304 -31.293 106.982
lradius 70.4
lwrist -12.5008
lhand -8.54415 -45.8346
lfingers 7.12502
lthumb 17.3852 -16.5921
rfemur -14.7079 10.9843 18.6306
rtibia 33.6255
rfoot -24.9922 -21.2097
rtoes 11.2146
lfemur -3.6271 -18.4729 -28.2884
ltibia 23.7541
lfoot -27.6795 26.7424
ltoes -34.3869
2078
root 8.2866 15.1863 39.3381 1.70161 -189.364 357.246
lowerback 6.22336 -1.05725 -1.07311
upperback -4.95065 -1.39634 0.236508
thorax -8.68634 -0.558361 1.03497
lowerneck -0.955705 3.73517 0.289441
upperneck -3.27715 5.0058 -1.85867
head -0.785046 2.54327 -0.632106
rclavicle -1.7344e-014 -1.07344e-014
rhumerus -43.1358 -0.216407 -80.2748
rradius 30.9264
rwrist 21.7388
rhand -8.7501 -48.6431
rfingers 7.12502
rthumb 17.187 282.097
lclavicle -1.7344e-014 -1.07344e-014
lhumerus -49.782 -28.9694 105.889
lradius 68.6068
lwrist -13.5837
lhand -9.39412 -46.4108
lfingers 7.12502
lthumb 16.567 -17.098
rfemur -14.8874 10.792 18.2964
rtibia 33.7306
rfoot -25.0143 -21.2102
rtoes 11.3812
lfemur -3.76704 -18.5261 -28.5018
ltibia 23.6889
lfoot -27.4602 26.5941
ltoes -34.7524
2079
root 8.27026 15.1852 39.345 1.68207 -189.277 357.096
lowerback 6.21289 -1.03935 -1.30604
upperback -4.96379 -1.39387 0.248926
thorax -8.68898 -0.541886 1.17828
lowerneck -0.820985 3.66559 0.00323275
upperneck -3.4092 4.91551 -1.78077
head -0.857768 2.50295 -0.567034
rclavicle 1.21756e-014 -1.19271e-015
rhumerus -43.6257 -0.999296 -79.4635
rradius 30.3938
rwrist 23.1793
rhand -7.38817 -49.2078
rfingers 7.12502
rthumb 18.4975 281.652
lclavicle 1.21756e-014 -1.19271e-015
lhumerus -49.5771 -26.3003 104.452
lradius 66.7748
lwrist -15.1207
lhand -9.98412 -48.0081
lfingers 7.12502
lthumb 15.9989 -18.6488
rfemur -14.9439 10.7551 18.061
rtibia 33.8004
rfoot -24.9726 -21.156
rtoes 11.3269
lfemur -3.77856 -18.7247 -28.7347
ltibia 23.6696
lfoot -27.4615 26.6831
ltoes -34.7374
2080
root 8.25515 15.1824 39.354 1.6121 -189.068 357.195
lowerback 6.2274 -0.986756 -1.34727
upperback -4.92148 -1.31875 0.388647
thorax -8.64959 -0.499521 1.33892
lowerneck -1.03979 3.64673 -0.57351
upperneck -3.04753 4.90206 -1.20266
head -0.737711 2.49123 -0.288122
rclavicle 9.19379e-015 3.18055e-015
rhumerus -44.2782 -1.11513 -78.8307
rradius 30.1531
rwrist 23.5054
rhand -6.31216 -50.2758
rfingers 7.12502
rthumb 19.5323 280.685
lclavicle 9.19379e-015 3.18055e-015
lhumerus -49.3806 -23.9059 103.347
lradius 64.8427
lwrist -15.3904
lhand -10.0352 -48.554
lfingers 7.12502
lthumb 15.9498 -19.1907
rfemur -14.8588 10.6369 18.1328
rtibia 33.8146
rfoot -24.8731 -21.1848
rtoes 11.0157
lfemur -3.72079 -18.9619 -28.7256
ltibia 23.6922
lfoot -27.3244 26.833
ltoes -35.1195
